<mxfile host="65bd71144e">
    <diagram name="Page-1" id="peV_G5JxgoitJ0QYGf3K">
        <mxGraphModel dx="1097" dy="488" grid="1" gridSize="10" guides="1" tooltips="1" connect="1" arrows="1" fold="1" page="1" pageScale="1" pageWidth="827" pageHeight="1169" math="0" shadow="0">
            <root>
                <mxCell id="0"/>
                <mxCell id="1" parent="0"/>
                <mxCell id="l7CKZ1zRiuqAMe14SBAq-1" value="Application Compagny:" style="rounded=0;whiteSpace=wrap;html=1;" parent="1" vertex="1">
                    <mxGeometry x="230" y="200" width="120" height="60" as="geometry"/>
                </mxCell>
                <mxCell id="l7CKZ1zRiuqAMe14SBAq-5" style="edgeStyle=orthogonalEdgeStyle;rounded=0;orthogonalLoop=1;jettySize=auto;html=1;startArrow=classic;startFill=1;endArrow=none;endFill=0;" parent="1" source="l7CKZ1zRiuqAMe14SBAq-2" edge="1">
                    <mxGeometry relative="1" as="geometry">
                        <mxPoint x="320" y="260" as="targetPoint"/>
                        <Array as="points">
                            <mxPoint x="394" y="335"/>
                            <mxPoint x="320" y="335"/>
                            <mxPoint x="320" y="260"/>
                        </Array>
                    </mxGeometry>
                </mxCell>
                <mxCell id="l7CKZ1zRiuqAMe14SBAq-6" value="gRPC ?" style="edgeLabel;html=1;align=center;verticalAlign=middle;resizable=0;points=[];" parent="l7CKZ1zRiuqAMe14SBAq-5" vertex="1" connectable="0">
                    <mxGeometry x="-0.0267" y="2" relative="1" as="geometry">
                        <mxPoint as="offset"/>
                    </mxGeometry>
                </mxCell>
                <mxCell id="l7CKZ1zRiuqAMe14SBAq-7" style="edgeStyle=orthogonalEdgeStyle;rounded=0;orthogonalLoop=1;jettySize=auto;html=1;entryX=0;entryY=0.5;entryDx=0;entryDy=0;exitX=1;exitY=0.5;exitDx=0;exitDy=0;" parent="1" source="l7CKZ1zRiuqAMe14SBAq-1" target="l7CKZ1zRiuqAMe14SBAq-3" edge="1">
                    <mxGeometry relative="1" as="geometry"/>
                </mxCell>
                <mxCell id="l7CKZ1zRiuqAMe14SBAq-8" value="GraphQL" style="edgeLabel;html=1;align=center;verticalAlign=middle;resizable=0;points=[];" parent="l7CKZ1zRiuqAMe14SBAq-7" vertex="1" connectable="0">
                    <mxGeometry x="0.2" y="4" relative="1" as="geometry">
                        <mxPoint x="-14" y="4" as="offset"/>
                    </mxGeometry>
                </mxCell>
                <mxCell id="l7CKZ1zRiuqAMe14SBAq-22" style="edgeStyle=orthogonalEdgeStyle;rounded=0;orthogonalLoop=1;jettySize=auto;html=1;entryX=1;entryY=0.5;entryDx=0;entryDy=0;" parent="1" target="l7CKZ1zRiuqAMe14SBAq-17" edge="1">
                    <mxGeometry relative="1" as="geometry">
                        <mxPoint x="230" y="230" as="sourcePoint"/>
                        <Array as="points">
                            <mxPoint x="220" y="230"/>
                            <mxPoint x="220" y="230"/>
                        </Array>
                    </mxGeometry>
                </mxCell>
                <mxCell id="l7CKZ1zRiuqAMe14SBAq-25" value="SOAP" style="edgeLabel;html=1;align=center;verticalAlign=middle;resizable=0;points=[];" parent="l7CKZ1zRiuqAMe14SBAq-22" vertex="1" connectable="0">
                    <mxGeometry x="-0.1048" y="1" relative="1" as="geometry">
                        <mxPoint x="-1" as="offset"/>
                    </mxGeometry>
                </mxCell>
                <mxCell id="l7CKZ1zRiuqAMe14SBAq-2" value="MS&amp;nbsp; MontantMax" style="rounded=0;whiteSpace=wrap;html=1;" parent="1" vertex="1">
                    <mxGeometry x="334" y="410" width="120" height="80" as="geometry"/>
                </mxCell>
                <mxCell id="l7CKZ1zRiuqAMe14SBAq-3" value="MS ProfilRisque" style="rounded=0;whiteSpace=wrap;html=1;" parent="1" vertex="1">
                    <mxGeometry x="460" y="200" width="120" height="60" as="geometry"/>
                </mxCell>
                <mxCell id="l7CKZ1zRiuqAMe14SBAq-12" style="edgeStyle=orthogonalEdgeStyle;rounded=0;orthogonalLoop=1;jettySize=auto;html=1;entryX=0.5;entryY=0;entryDx=0;entryDy=0;" parent="1" source="l7CKZ1zRiuqAMe14SBAq-10" target="l7CKZ1zRiuqAMe14SBAq-1" edge="1">
                    <mxGeometry relative="1" as="geometry"/>
                </mxCell>
                <mxCell id="l7CKZ1zRiuqAMe14SBAq-14" value="Rempli le formulaire" style="edgeLabel;html=1;align=center;verticalAlign=middle;resizable=0;points=[];" parent="l7CKZ1zRiuqAMe14SBAq-12" vertex="1" connectable="0">
                    <mxGeometry x="0.1636" y="3" relative="1" as="geometry">
                        <mxPoint as="offset"/>
                    </mxGeometry>
                </mxCell>
                <mxCell id="l7CKZ1zRiuqAMe14SBAq-31" value="API Rest" style="edgeLabel;html=1;align=center;verticalAlign=middle;resizable=0;points=[];" parent="l7CKZ1zRiuqAMe14SBAq-12" vertex="1" connectable="0">
                    <mxGeometry x="-0.1253" y="-3" relative="1" as="geometry">
                        <mxPoint as="offset"/>
                    </mxGeometry>
                </mxCell>
                <mxCell id="l7CKZ1zRiuqAMe14SBAq-20" style="edgeStyle=orthogonalEdgeStyle;rounded=0;orthogonalLoop=1;jettySize=auto;html=1;" parent="1" source="l7CKZ1zRiuqAMe14SBAq-10" target="l7CKZ1zRiuqAMe14SBAq-17" edge="1">
                    <mxGeometry relative="1" as="geometry"/>
                </mxCell>
                <mxCell id="l7CKZ1zRiuqAMe14SBAq-21" value="Envoi un Chèque de banque" style="edgeLabel;html=1;align=center;verticalAlign=middle;resizable=0;points=[];" parent="l7CKZ1zRiuqAMe14SBAq-20" vertex="1" connectable="0">
                    <mxGeometry x="0.1295" y="1" relative="1" as="geometry">
                        <mxPoint as="offset"/>
                    </mxGeometry>
                </mxCell>
                <mxCell id="l7CKZ1zRiuqAMe14SBAq-10" value="User&lt;div&gt;&lt;br&gt;&lt;/div&gt;" style="shape=umlActor;verticalLabelPosition=bottom;verticalAlign=top;html=1;outlineConnect=0;" parent="1" vertex="1">
                    <mxGeometry x="275" y="40" width="30" height="60" as="geometry"/>
                </mxCell>
                <mxCell id="l7CKZ1zRiuqAMe14SBAq-17" value="MS Banque" style="rounded=0;whiteSpace=wrap;html=1;" parent="1" vertex="1">
                    <mxGeometry x="40" y="200" width="120" height="60" as="geometry"/>
                </mxCell>
                <mxCell id="l7CKZ1zRiuqAMe14SBAq-27" style="edgeStyle=orthogonalEdgeStyle;rounded=0;orthogonalLoop=1;jettySize=auto;html=1;entryX=0.25;entryY=1;entryDx=0;entryDy=0;startArrow=classic;startFill=1;endArrow=none;endFill=0;" parent="1" source="l7CKZ1zRiuqAMe14SBAq-19" target="l7CKZ1zRiuqAMe14SBAq-1" edge="1">
                    <mxGeometry relative="1" as="geometry">
                        <mxPoint x="190" y="290" as="targetPoint"/>
                        <Array as="points">
                            <mxPoint x="200" y="320"/>
                            <mxPoint x="260" y="320"/>
                        </Array>
                    </mxGeometry>
                </mxCell>
                <mxCell id="l7CKZ1zRiuqAMe14SBAq-28" value="API Rest" style="edgeLabel;html=1;align=center;verticalAlign=middle;resizable=0;points=[];" parent="l7CKZ1zRiuqAMe14SBAq-27" vertex="1" connectable="0">
                    <mxGeometry x="-0.0694" y="-2" relative="1" as="geometry">
                        <mxPoint as="offset"/>
                    </mxGeometry>
                </mxCell>
                <mxCell id="l7CKZ1zRiuqAMe14SBAq-29" style="edgeStyle=orthogonalEdgeStyle;rounded=0;orthogonalLoop=1;jettySize=auto;html=1;entryX=0.5;entryY=1;entryDx=0;entryDy=0;" parent="1" source="l7CKZ1zRiuqAMe14SBAq-19" target="l7CKZ1zRiuqAMe14SBAq-17" edge="1">
                    <mxGeometry relative="1" as="geometry">
                        <Array as="points">
                            <mxPoint x="100" y="440"/>
                        </Array>
                    </mxGeometry>
                </mxCell>
                <mxCell id="l7CKZ1zRiuqAMe14SBAq-30" value="Envoie l&#39;argent au compte du client" style="edgeLabel;html=1;align=center;verticalAlign=middle;resizable=0;points=[];" parent="l7CKZ1zRiuqAMe14SBAq-29" vertex="1" connectable="0">
                    <mxGeometry x="-0.0776" y="-6" relative="1" as="geometry">
                        <mxPoint x="-1" as="offset"/>
                    </mxGeometry>
                </mxCell>
                <mxCell id="l7CKZ1zRiuqAMe14SBAq-19" value="MS Fournisseur" style="rounded=0;whiteSpace=wrap;html=1;" parent="1" vertex="1">
                    <mxGeometry x="140" y="420" width="120" height="60" as="geometry"/>
                </mxCell>
                <mxCell id="l7CKZ1zRiuqAMe14SBAq-32" style="edgeStyle=orthogonalEdgeStyle;rounded=0;orthogonalLoop=1;jettySize=auto;html=1;entryX=0.5;entryY=0.5;entryDx=0;entryDy=0;entryPerimeter=0;" parent="1" source="l7CKZ1zRiuqAMe14SBAq-3" target="l7CKZ1zRiuqAMe14SBAq-10" edge="1">
                    <mxGeometry relative="1" as="geometry">
                        <Array as="points">
                            <mxPoint x="490" y="70"/>
                        </Array>
                    </mxGeometry>
                </mxCell>
                <mxCell id="l7CKZ1zRiuqAMe14SBAq-33" value="Demande le chèque" style="edgeLabel;html=1;align=center;verticalAlign=middle;resizable=0;points=[];" parent="l7CKZ1zRiuqAMe14SBAq-32" vertex="1" connectable="0">
                    <mxGeometry x="0.3143" y="-2" relative="1" as="geometry">
                        <mxPoint x="1" as="offset"/>
                    </mxGeometry>
                </mxCell>
            </root>
        </mxGraphModel>
    </diagram>
</mxfile>